{"title":"Downton Abbey S04 All Eps DVDRIP x264 Eng Subs","uid":14140482,"size":3308957233,"categoryP":"video","categoryS":"tv_shows","magnet":"?xt=urn:btih:26564f43f5b0a4906ea089660deca73564c541e4&amp;dn=Downton+Abbey+S04+All+Eps+DVDRIP+x264+Eng+Subs&amp;tr=udp%3A%2F%2Ftracker.leechers-paradise.org%3A6969&amp;tr=udp%3A%2F%2Fzer0day.ch%3A1337&amp;tr=udp%3A%2F%2Fopen.demonii.com%3A1337&amp;tr=udp%3A%2F%2Ftracker.coppersurfer.tk%3A6969&amp;tr=udp%3A%2F%2Fexodus.desync.com%3A6969","seeders":20,"leechers":7,"uploader":"ChasVA","files":9,"time":1459602393,"description":"The Complete Fourth Season\r\n\r\n(See the separate torrent for the Special Features)\r\n\r\n-=-=-=-=-=-=-=-=-=-=-=-=-=-=-=-=-=-=-=-=-=-=-=-\r\n\r\nTechnical Specifications:\r\n\r\nFormat : MPEG-4\r\nFormat profile : Base Media / Version 2\r\nCodec ID : mp42 (isom/iso2/avc1/mp41)\r\nOverall bit rate mode : Variable\r\nOverall bit rate : 930 Kbps\r\n\r\nVideo\r\n\r\nID : 1\r\nFormat : AVC\r\nFormat/Info : Advanced Video Codec\r\nFormat profile :   \r\nFormat settings, CABAC : Yes\r\nFormat settings, ReFrames : 4 frames\r\nCodec ID : avc1\r\nCodec ID/Info : Advanced Video Coding\r\nBit rate : 755 Kbps\r\nWidth : 720 pixels\r\nHeight : 480 pixels\r\nDisplay aspect ratio : 16:9\r\nOriginal display aspect ratio : 16:9\r\nFrame rate mode : Variable\r\nFrame rate : 23.976 (23976/1000) fps\r\nMinimum frame rate : 12.048 fps\r\nMaximum frame rate : 30.303 fps\r\n\r\nAudio\r\n\r\nID : 2\r\nFormat : AAC\r\nFormat/Info : Advanced Audio Codec\r\nFormat profile : LC\r\nCodec ID : 40\r\nBit rate mode : Variable\r\nBit rate : 160 Kbps\r\nChannel(s) : 2 channels\r\nChannel positions : Front: L R\r\nSampling rate : 48.0 KHz\r\nFrame rate : 46.875 fps (1024 spf)\r\nCompression mode : Lossy\r\nStream size : 78.7 MiB (17%)\r\nTitle : Stereo / Stereo\r\nLanguage : English\r\nDefault : Yes\r\n\r\nText\r\n\r\nID : 3\r\nFormat : mp4s\r\nCodec ID : E0\r\nBit rate mode : Variable\r\nBit rate : 7 074 bps\r\nStream size : 3.43 MiB (1%)\r\nLanguage : English\r\nDefault : Yes\r\nForced : No","torrent":{"xt":"urn:btih:26564f43f5b0a4906ea089660deca73564c541e4","amp;dn":"Downton+Abbey+S04+All+Eps+DVDRIP+x264+Eng+Subs","amp;tr":["udp%3A%2F%2Ftracker.leechers-paradise.org%3A6969","udp%3A%2F%2Fzer0day.ch%3A1337","udp%3A%2F%2Fopen.demonii.com%3A1337","udp%3A%2F%2Ftracker.coppersurfer.tk%3A6969","udp%3A%2F%2Fexodus.desync.com%3A6969"],"infoHash":"26564f43f5b0a4906ea089660deca73564c541e4","infoHashBuffer":{"type":"Buffer","data":[38,86,79,67,245,176,164,144,110,160,137,102,13,236,167,53,100,197,65,228]},"announce":[],"urlList":[]}}